<svg xmlns="http://www.w3.org/2000/svg" viewBox="0 0 151.44 34.86"><defs><style>.cls-1{fill:#fc0037;}.cls-2,.cls-3{fill:#fff;}.cls-3{fill-rule:evenodd;}</style></defs><title>logo</title><g id="レイヤー_4"><path class="cls-1" d="M144 5.79h-125.73c-6.88 0-12.98 6.21-15.07 15.21l-3.2 13.86h125.25a62.16 62.16 0 0 1 1.89-7c1.16-3.43 6.7-22.07 16.86-22.07zM116.54 6.6h33.12a10.16 10.16 0 0 1 1.78-.81h-34.9zM116.54 8.78h30.34c.3-.29.6-.56.9-.82h-31.24zM116.54 11h28.46c.22-.28.44-.55.67-.81h-29.1zM116.54 13.12h26.91l.54-.81h-27.45zM116.54 15.3h25.62c.15-.27.31-.54.47-.81h-26.09zM116.54 17.47h24.46c.13-.27.27-.54.41-.81h-24.87zM116.54 19.65h23.46l.37-.82h-23.83zM116.54 21.82h22.6l.33-.81h-22.93zM116.54 24h21.78q.13-.39.3-.81h-22.08zM116.54 26.17h21l.28-.81h-21.3zM116.54 28.34h20.29l.2-.58.08-.23h-20.57zM116.54 30.52h19.63l.24-.82h-19.87zM116.54 32.69h19.06l.21-.81h-19.27zM116.54 34.86h18.57c0-.12.09-.4.18-.81h-18.75z"/><path class="cls-2" d="M103.27 29.17l2.79-29.17h-6c.3 4-3.51 7.66-7.38 9.6h6.45l-4 19.57zM95.34 20.1h-2.27l3.53-5.39.62-2.55h-4.51l-11.69 17.01h6.88l2.72-4.74h3.79l.93-4.33zM122.6 4h-13.84c1.34 0 3.49 2.14 3.11 3.93l-5.78 21.2h5.71l2.35-10 .95-4.08 1.55-6.62h4.61c2.15 0 3.24 1.37 2.79 3.31a4.35 4.35 0 0 1-4.34 3.31h-3.43l6.5 14.12h8.75l-8.71-10.85a9.18 9.18 0 0 0 6.12-6.58c.98-4.19-1.23-7.74-6.34-7.74z"/><path id="シェイプ_2383" class="cls-3" d="M25.86 20.45h6.16c.76 0 1.52-.06 2.27-.09.33 0 .4-.1.36-.42s-.08-.53-.11-.8a.33.33 0 0 0-.39-.32h-4.3c-.11 0-.23 0-.25-.16a3.68 3.68 0 0 0-1.44-2.59l1.45-.07 3.19-.13a13 13 0 0 0 2.77-.4 3 3 0 0 0 1.31-.79 2.94 2.94 0 0 0 .48-.87c.08-.17.13-.25.35-.25h2.55s1.58.07 2.37.11h.77l-.45.31a4.46 4.46 0 0 0-1.57 2.02 5 5 0 0 1-2.51 2.36c-.17.07-.24.15-.21.34.05.37.07.75.1 1.12s.1.49.5.49h7.710000000000001c-.28.14-.56.29-.83.45a4.07 4.07 0 0 0-1.22 1.42 3.72 3.72 0 0 0-.51 1.58.27.27 0 0 1-.2.12h-4.97a.16.16 0 0 0-.19.13.06.06 0 0 0 0 .06v1.95a2.93 2.93 0 0 1-2 2.83 6.32 6.32 0 0 1-2.37.26c-.51 0-1 0-1.55-.06-.21 0-.31-.05-.33-.3a5.26 5.26 0 0 0-.32-1.66 2.34 2.34 0 0 0-1.77-1.39l-.23-.09v-.08a4.36 4.36 0 0 1 .51 0c.49 0 1 .1 1.47.12a3.77 3.77 0 0 0 1.67-.16 1.33 1.33 0 0 0 .73-1.32.34.34 0 0 0-.39-.35h-2.34c-1 0-1.92 0-2.87.05a.34.34 0 0 1-.37-.28 6.66 6.66 0 0 0-.42-1.26 3.49 3.49 0 0 0-2-1.69 3 3 0 0 0-.6-.1zm18.85-6.58c7.08-.12 14.15-.11 21.23-.22v.14a2.65 2.65 0 0 1-.42.18 6 6 0 0 0-3.23 2.65 24.19 24.19 0 0 0-1.86 4.12 11.21 11.21 0 0 1-2.73 4l-1 .89a.35.35 0 0 0 0 .3l1.33 2.54c.09.18 0 .25-.2.26h-2.7a3 3 0 0 0-.42 0 .63.63 0 0 1-.63-.39c-.74-1.33-1.49-2.65-2.23-4-.23-.42-.46-.86-.71-1.27l-1.22-1.95c-.17-.27-.12-.36.21-.36h3a1 1 0 0 1 1 .59l.5.86s.25.26.43.07a5.13 5.13 0 0 0 .69-.85 10.24 10.24 0 0 0 1.18-2.43 3.3 3.3 0 0 0 .11-.69c0-.31-.08-.39-.38-.39h-8.66c-.14 0-.18-.06-.2-.2a4.7 4.7 0 0 0-.77-2 4.48 4.48 0 0 0-1.64-1.42 4.13 4.13 0 0 0-.42-.14 1.51 1.51 0 0 1-.28-.15zm-36.93 6.22h1c1.27 0 2.54.07 3.82.06.89 0 1.78-.11 2.67-.12a8.91 8.91 0 0 0 2.75-.55l.5-.14a5.38 5.38 0 0 0 2.66-2.76 22 22 0 0 0 .82-2.24c.07-.23 0-.49.1-.74a.22.22 0 0 1 .14-.16h6.11l-.51.43a5.69 5.69 0 0 0-1.2 1.64 14.05 14.05 0 0 0-1.26 3.18 9.21 9.21 0 0 1-1 2.49 6.44 6.44 0 0 1-2.38 2.3c-.17.09-.22.19 0 .33a.66.66 0 0 1 .15.22c.42 1.22.83 2.45 1.26 3.67.14.43.3.84.45 1.25h-1.7c-1.09-.06-2.19-.16-3.28-.26a.31.31 0 0 1-.22-.18c-.46-1.21-.92-2.41-1.34-3.63a.57.57 0 0 0-.65-.47h-3.1l-2.2-.05a.25.25 0 0 1-.17-.13 5.74 5.74 0 0 0-3.29-4l-.11-.06v-.05zm58.28 4.44a1.12 1.12 0 0 1 .31-.1 33 33 0 0 1 4.22 0 7 7 0 0 0 2.23-.18h.1a2.72 2.72 0 0 0 2.08-1.25 9.09 9.09 0 0 0 1.43-2.42c.4-1 .84-2 1.26-3 .1-.25.18-.5.26-.76a.29.29 0 0 1 .32-.24l3.9.11h1.35a1.07 1.07 0 0 1 .27.07c-.06.11-.1.26-.19.31a7.24 7.24 0 0 0-2 1.62 9.82 9.82 0 0 0-1.46 2.63c-.31.75-.64 1.5-1 2.25s-.65 1.46-1 2.18a5.12 5.12 0 0 1-2.3 2.45 3.11 3.11 0 0 1-1 .25c-.76.08-1.52.14-2.29.16h-3.22c-.45 0-.62-.17-.74-.61a13.78 13.78 0 0 0-.52-1.69 3.08 3.08 0 0 0-1.56-1.5l-.36-.17-.12-.1zm7.94-9.69l.57 2.85c.08.37.16.75.25 1.12 0 .21 0 .31-.23.3h-5.13a.54.54 0 0 1-.57-.41 7.08 7.08 0 0 0-1-1.92 6.83 6.83 0 0 0-1.61-1.52 3.13 3.13 0 0 0-.6-.24 1.67 1.67 0 0 1-.23-.12.14.14 0 0 1 0-.06z"/></g></svg>