<svg xmlns="http://www.w3.org/2000/svg" viewBox="0 0 142.96 40.5"><defs><style>.cls-1{fill:#fc0037;}.cls-2,.cls-3{fill:#fff;}.cls-3{fill-rule:evenodd;}</style></defs><title>logo_2</title><g id="レイヤー_2" data-name="レイヤー 2"><g id="レイヤー_4" data-name="レイヤー 4"><path class="cls-1" d="M107.22,15.44h33.91a15.43,15.43,0,0,1,1.83-.52H107.22Z"/><path class="cls-1" d="M107.22,16.83h31.06l.93-.52h-32Z"/><path class="cls-1" d="M107.22,18.22h29.11l.68-.52H107.22Z"/><path class="cls-1" d="M107.22,19.62h27.55c.18-.18.37-.35.56-.52H107.22Z"/><path class="cls-1" d="M107.22,21h26.23l.48-.52H107.22Z"/><path class="cls-1" d="M107.22,22.4H132.3l.42-.52h-25.5Z"/><path class="cls-1" d="M107.22,23.79h24.06l.38-.52H107.22Z"/><path class="cls-1" d="M107.22,25.18h23.14l.34-.52H107.22Z"/><path class="cls-1" d="M107.22,26.57h22.29l.32-.52H107.22Z"/><path class="cls-1" d="M107.22,28h21.52l.29-.52H107.22Z"/><path class="cls-1" d="M107.22,29.35H128l.2-.37s.06-.1.09-.15H107.22Z"/><path class="cls-1" d="M107.22,30.74h20.1l.24-.52H107.22Z"/><path class="cls-1" d="M107.22,32.14h19.52c.06-.17.13-.34.21-.52H107.22Z"/><path class="cls-1" d="M107.22,33.53h19l.18-.52H107.22Z"/><path class="cls-1" d="M123.21,15.44H18.33c-6.91,0-13,3.83-15.12,9.46L0,33.5H117.75Z"/><path class="cls-2" d="M118.17,39.38,109.6,25.47l-.22,13.91h-7.62l.12-1.11c0-.06.12-17.2,0-19.32-.1-1.75,0-4.2,0-4.31l0-1h14c5.06,0,8.59,3.4,8.59,8.26,0,3.48-3,5.52-5.58,6.61l10.34,10.83Zm-3.31-15.32c1.49,0,3.09-.85,3.09-2.12s-1.09-2.05-3.25-2.05h-5l-.07,4.17Z"/><path class="cls-1" d="M116,14.68c4.81,0,7.59,3.2,7.59,7.26,0,3.48-3.86,5.38-6.34,6.21L127,38.38h-8.25l-8.21-13.32h4.34c2,0,4.09-1.24,4.09-3.12,0-2.41-2.22-3.05-4.25-3.05h-6l-.31,19.49h-5.52c0-.07.12-17.32,0-19.49-.1-1.72,0-4.21,0-4.21H116m-13.09,23.7h0M116,12.68H101l-.07,1.93c0,.1-.1,2.6,0,4.39.11,2,0,17.85,0,19.26l-.22,2.12h9.71l0-2,.15-9.49L117,39.43l.58,1h14L128.43,37l-7.78-8.15c3.16-1.7,4.91-4.13,4.91-6.91,0-5.45-3.94-9.26-9.59-9.26Zm-5.3,8.21h4c2.25,0,2.25.76,2.25,1.05,0,.51-1,1.12-2.09,1.12h-4.22l0-2.17Z"/><polygon class="cls-2" points="71.05 39.39 84.12 20.38 91.33 20.38 86.74 28.32 88.52 28.32 87.15 34.65 83.13 34.65 80.41 39.39 71.05 39.39"/><path class="cls-1" d="M89.59,21.38,85,29.32h2.27l-.94,4.33H82.55l-2.72,4.74H73l11.7-17h4.94m3.47-2H83.6l-.6.87-11.69,17-2.16,3.13H81l.58-1,2.14-3.73H88l.34-1.58.93-4.33.52-2.42H88.47l2.86-4.94,1.73-3Z"/><path class="cls-2" d="M88.82,39.5l1.46-19.65H78.42L82.19,18A16.9,16.9,0,0,0,91.61,2l0-1h9.32V39.5Z"/><path class="cls-1" d="M99.9,2V38.5h-10l1.46-19.65H82.64A17.9,17.9,0,0,0,92.61,2H99.9m2-2H90.54l.07,2.07a15.87,15.87,0,0,1-8.87,15L74.2,20.85h15l-1.29,17.5-.16,2.15H101.9V0Z"/><path id="シェイプ_2383" data-name="シェイプ 2383" class="cls-3" d="M21.87,24.21h.86l4.93,0c.71,0,1.42-.05,2.13-.08.3,0,.37-.09.33-.4S30,23.2,30,23s-.14-.31-.36-.31l-2.72,0c-.44,0-.87,0-1.31,0-.11,0-.21,0-.23-.15A3.46,3.46,0,0,0,24,20.12l1.35-.05,3-.12A12,12,0,0,0,31,19.58a2.76,2.76,0,0,0,1.23-.75,2.46,2.46,0,0,0,.45-.81.3.3,0,0,1,.33-.23c.79,0,1.59,0,2.38,0s1.49.07,2.23.1l.72,0a4.44,4.44,0,0,1-.42.3A4.11,4.11,0,0,0,36.43,20a4.66,4.66,0,0,1-2.36,2.21c-.15.07-.22.14-.19.32,0,.35.06.7.09,1.05s.1.46.47.46h3l4.12,0,.11,0c-.27.13-.52.27-.77.42a3.66,3.66,0,0,0-1.16,1.34,3.35,3.35,0,0,0-.47,1.48.22.22,0,0,1-.18.1c-1,0-1.94,0-2.91,0H34.42a.15.15,0,0,0-.18.13v.06c0,.6-.05,1.21,0,1.82a2.76,2.76,0,0,1-1.86,2.65,5.57,5.57,0,0,1-2.22.24c-.48,0-1,0-1.45,0-.21,0-.29,0-.31-.28a5.2,5.2,0,0,0-.3-1.56,2.19,2.19,0,0,0-1.66-1.3,2,2,0,0,1-.22-.09V29a2.57,2.57,0,0,1,.48,0c.46,0,.92.09,1.38.1a3.5,3.5,0,0,0,1.57-.15,1.22,1.22,0,0,0,.67-1.23.31.31,0,0,0-.36-.33H27.76l-2.7.05c-.2,0-.28-.08-.34-.26a6.83,6.83,0,0,0-.4-1.18,3.24,3.24,0,0,0-1.88-1.58,3.78,3.78,0,0,0-.57-.1ZM40.12,18c6.63-.11,13.27-.1,19.9-.2L60,18a3.39,3.39,0,0,1-.39.18,5.54,5.54,0,0,0-3,2.48,23.09,23.09,0,0,0-1.75,3.86,10.48,10.48,0,0,1-2.56,3.78c-.3.28-.61.54-.91.84a.32.32,0,0,0,0,.27l1.24,2.39c.08.16,0,.23-.19.24l-2.53,0c-.13,0-.26,0-.39,0a.56.56,0,0,1-.59-.36c-.7-1.24-1.4-2.48-2.09-3.72-.22-.4-.43-.8-.67-1.19-.37-.61-.76-1.21-1.14-1.82-.16-.26-.11-.35.2-.35.93,0,1.87,0,2.81,0a.94.94,0,0,1,.9.56c.17.26.32.54.48.81s.23.23.39.06a4.61,4.61,0,0,0,.66-.8,9.46,9.46,0,0,0,1.09-2.35,2.85,2.85,0,0,0,.11-.65c0-.29-.08-.36-.36-.37H49.25c-1.7,0-3.41,0-5.11,0h-1c-.12,0-.17-.05-.19-.18a4.32,4.32,0,0,0-.72-1.92,4.22,4.22,0,0,0-1.53-1.32,2.67,2.67,0,0,0-.4-.13l-.26-.14ZM4.93,23.87c.32,0,.65,0,1,0,1.2,0,2.39.07,3.58.06.84,0,1.67-.1,2.51-.11a8.46,8.46,0,0,0,2.58-.52l.47-.13a5,5,0,0,0,2.49-2.59,21.76,21.76,0,0,0,.74-2.1,5.21,5.21,0,0,0,.09-.69.2.2,0,0,1,.13-.15c.43,0,.87,0,1.3,0l2.37,0h2.06l-.47.4a5,5,0,0,0-1.13,1.54,13.22,13.22,0,0,0-1.18,3,8.37,8.37,0,0,1-.91,2.33,6,6,0,0,1-2.26,2.17c-.16.08-.21.18,0,.31a.6.6,0,0,1,.14.21c.4,1.14.78,2.29,1.18,3.44.14.4.29.79.43,1.17-.55,0-1.08,0-1.6,0-1-.06-2.05-.15-3.08-.24a.31.31,0,0,1-.2-.17c-.43-1.13-.86-2.27-1.26-3.41a.53.53,0,0,0-.6-.44c-1,0-1.94,0-2.91,0-.69,0-1.38,0-2.06-.05a.2.2,0,0,1-.16-.12A5.36,5.36,0,0,0,5,24l-.1-.06v-.05ZM60.84,28a1.4,1.4,0,0,1,.29-.09,30.78,30.78,0,0,1,4,0,7,7,0,0,0,2.09-.16l.09,0a2.53,2.53,0,0,0,1.94-1.16,8.63,8.63,0,0,0,1.35-2.26c.37-1,.78-1.89,1.17-2.84a5.93,5.93,0,0,0,.24-.71.28.28,0,0,1,.31-.22l3.66.09,1.26,0a1.22,1.22,0,0,1,.26.06c-.06.1-.1.25-.18.29a6.92,6.92,0,0,0-1.84,1.52A8.89,8.89,0,0,0,74.08,25c-.29.7-.6,1.4-.91,2.1s-.61,1.37-.94,2a4.85,4.85,0,0,1-2.15,2.3,3,3,0,0,1-1,.23c-.71.07-1.43.13-2.14.15-1,0-2,0-3,0-.43,0-.58-.16-.7-.57a12.69,12.69,0,0,0-.49-1.59,2.81,2.81,0,0,0-1.46-1.4L61,28.13l-.11-.1ZM68.24,19c.18.91.36,1.79.54,2.67.07.35.14.7.22,1.06,0,.19,0,.28-.21.28H64a.5.5,0,0,1-.54-.38,6.49,6.49,0,0,0-.91-1.8,6.42,6.42,0,0,0-1.51-1.43,2.51,2.51,0,0,0-.56-.22L60.29,19l0-.05Z"/></g></g></svg>